<?xml version="1.0" standalone="no"?>
<!DOCTYPE svg PUBLIC "-//W3C//DTD SVG 20010904//EN"
 "http://www.w3.org/TR/2001/REC-SVG-20010904/DTD/svg10.dtd">
<svg version="1.0" xmlns="http://www.w3.org/2000/svg"
 width="1280.000000pt" height="720.000000pt" viewBox="0 0 1280.000000 720.000000"
 preserveAspectRatio="xMidYMid meet">

<g transform="translate(0.000000,720.000000) scale(0.100000,-0.100000)"
fill="#000000" stroke="none">
<path d="M3798 6443 c12 -2 30 -2 40 0 9 3 -1 5 -23 4 -22 0 -30 -2 -17 -4z"/>
<path d="M3896 6425 c4 -8 8 -15 10 -15 2 0 4 7 4 15 0 8 -4 15 -10 15 -5 0
-7 -7 -4 -15z"/>
<path d="M4330 6422 c-51 -6 -88 -31 -95 -63 -7 -31 -7 -31 -59 -25 -28 4 -52
11 -54 17 -2 5 -32 9 -68 9 -45 0 -74 6 -99 20 -41 23 -45 24 -45 10 0 -5 6
-10 14 -10 8 0 16 -7 20 -15 3 -10 19 -15 42 -15 21 0 46 -8 57 -17 19 -17 20
-17 14 0 -8 22 0 22 47 -2 53 -28 141 -23 163 9 9 13 11 20 5 16 -7 -4 -12 -2
-12 3 0 6 8 11 18 12 11 0 12 2 4 6 -10 4 -9 8 5 19 21 16 37 18 28 4 -4 -7 3
-7 20 0 38 14 57 12 85 -10 20 -15 23 -21 13 -31 -7 -7 -13 -17 -13 -23 0 -5
3 -6 7 -3 3 4 11 2 18 -3 6 -5 32 -12 56 -15 68 -9 81 -15 76 -35 -3 -11 1
-21 9 -24 8 -3 14 0 14 7 0 7 16 -5 35 -25 39 -44 66 -51 37 -10 -45 61 -87
91 -142 102 -29 6 -55 12 -58 15 -2 2 -7 19 -11 37 -6 31 -10 33 -56 38 -28 3
-61 4 -75 2z"/>
<path d="M4181 6284 c0 -11 3 -14 6 -6 3 7 2 16 -1 19 -3 4 -6 -2 -5 -13z"/>
<path d="M6603 6293 c-50 -6 -39 -19 13 -15 50 4 78 -14 89 -60 l6 -23 629 0
c346 0 632 4 636 8 4 4 -275 7 -619 7 l-627 0 0 23 c0 23 -57 69 -82 65 -7 0
-28 -3 -45 -5z"/>
<path d="M6535 6270 c-3 -5 -2 -10 4 -10 5 0 13 5 16 10 3 6 2 10 -4 10 -5 0
-13 -4 -16 -10z"/>
<path d="M4166 6245 c-8 -8 -22 -15 -32 -15 -10 0 -26 -8 -37 -17 -10 -10 -31
-18 -46 -19 -97 -2 -122 -5 -116 -14 3 -5 1 -10 -5 -10 -6 0 -18 -7 -27 -15
-8 -9 -23 -13 -33 -10 -10 3 -26 -2 -36 -12 -17 -17 -15 -18 61 -21 83 -3 115
-18 115 -53 0 -17 -67 -194 -410 -1084 -100 -258 -244 -632 -320 -830 -76
-198 -204 -531 -285 -740 -81 -209 -171 -443 -200 -520 -30 -77 -73 -188 -97
-248 l-43 -107 -149 -5 c-83 -3 -152 -8 -155 -10 -2 -3 55 -5 127 -5 104 0
132 -3 132 -13 0 -8 -9 -49 -20 -91 -24 -96 -71 -185 -127 -243 -42 -43 -130
-93 -165 -93 -16 0 -18 -17 -20 -171 l-3 -172 -35 -3 c-19 -1 -269 -5 -556 -9
l-521 -6 -12 70 c-6 39 -16 128 -23 198 -7 81 -18 141 -29 163 -22 45 -49 175
-49 232 1 24 7 73 14 110 l13 68 -73 0 c-68 0 -73 2 -76 23 -3 22 -3 22 -179
19 l-176 -3 -6 53 c-4 29 -7 141 -7 248 0 243 4 261 150 710 27 85 50 156 50
157 0 1 -44 37 -98 80 -53 43 -103 84 -111 91 -11 11 -16 11 -26 0 -12 -14
-60 -135 -71 -180 -3 -16 -9 -28 -13 -28 -18 0 -97 -282 -85 -301 2 -4 -3 -36
-11 -71 -39 -166 -65 -359 -65 -490 -1 -134 6 -170 63 -372 30 -105 128 -138
345 -117 70 7 142 15 159 18 31 5 33 4 33 -25 0 -17 3 -37 6 -46 5 -13 -10
-16 -108 -18 l-113 -3 -3 -139 c-2 -105 1 -141 10 -148 7 -4 94 -8 193 -8 124
0 188 -4 205 -13 22 -11 28 -28 55 -152 l30 -140 35 -4 c19 -1 279 0 578 4
l542 7 0 139 c0 160 -8 149 116 152 57 1 88 -5 179 -37 61 -22 124 -45 142
-53 17 -7 36 -13 42 -13 11 0 17 -147 12 -284 -2 -37 0 -119 4 -182 6 -100 9
-114 25 -114 20 0 30 42 30 127 0 28 5 85 10 125 6 40 14 119 19 176 4 56 10
104 13 107 2 2 26 -2 54 -10 27 -8 74 -20 103 -28 l55 -13 12 -60 c6 -32 17
-87 22 -122 6 -34 18 -69 26 -78 9 -8 16 -24 16 -35 0 -53 106 -213 211 -320
194 -195 441 -289 729 -276 149 7 234 29 375 97 129 62 256 167 347 287 61 81
118 186 118 218 0 8 7 26 15 42 7 15 24 61 36 101 21 67 25 72 51 72 20 0 33
-8 46 -28 9 -16 35 -50 57 -75 36 -42 44 -47 82 -47 38 0 45 4 68 38 14 20 30
54 36 75 l10 37 1415 0 1414 0 -6 25 c-13 52 0 55 289 55 205 0 267 -3 275
-13 7 -8 13 -101 16 -248 2 -129 5 -235 5 -236 1 -2 10 -3 21 -3 17 0 20 7 21
53 3 97 6 142 17 227 6 47 14 115 17 153 l7 67 98 0 c69 0 103 -4 112 -13 7
-8 31 -85 52 -173 49 -200 50 -202 109 -293 296 -453 911 -576 1357 -271 81
56 162 132 214 201 56 74 136 219 136 246 0 10 4 23 9 28 5 6 19 51 31 100 12
50 24 98 26 108 11 37 44 17 115 -73 65 -82 73 -90 105 -90 42 0 75 32 92 88
7 22 12 101 12 179 0 163 -8 153 116 153 125 0 378 29 454 52 37 11 93 33 122
49 10 5 27 9 38 9 24 0 26 4 95 195 55 151 95 328 95 418 0 82 -24 151 -62
180 -114 87 -125 114 -69 182 62 75 82 184 52 291 -12 44 -57 96 -103 120
l-28 15 0 174 0 174 -36 98 c-20 54 -46 132 -59 173 -35 114 -121 325 -174
425 -26 50 -89 165 -139 256 -116 212 -365 614 -298 482 9 -18 16 -37 16 -43
0 -7 49 -94 109 -193 60 -100 133 -229 164 -287 137 -263 177 -341 177 -350 0
-6 -21 -10 -46 -10 -65 0 -81 20 -233 290 -70 124 -191 337 -269 475 -84 147
-142 260 -142 276 0 38 34 64 78 60 7 0 26 -23 43 -51 17 -27 33 -50 36 -50 2
0 -5 16 -17 35 -12 20 -34 60 -49 90 -29 61 -190 240 -254 283 -23 16 -69 34
-101 40 -84 17 -1663 17 -1718 0 -53 -16 -103 -73 -167 -192 -49 -91 -54 -106
-63 -195 -5 -53 -17 -383 -26 -733 -10 -350 -20 -640 -24 -643 -4 -4 -24 -4
-45 -1 l-38 7 3 287 c2 162 7 291 13 297 6 6 7 168 2 425 l-6 415 -149 223
c-81 122 -151 222 -154 222 -7 0 -6 -1 83 -134 96 -145 120 -189 116 -207 -3
-12 1 -17 14 -16 11 1 18 -4 17 -15 -1 -10 2 -16 6 -13 4 3 19 -13 34 -35 l26
-39 -1 -375 c0 -345 -1 -375 -17 -379 -16 -4 -16 -5 0 -6 19 -1 21 -38 2 -45
-8 -3 -11 -19 -8 -47 3 -23 2 -49 -1 -58 -4 -9 -6 -105 -5 -214 0 -153 -2
-197 -11 -191 -9 5 -10 2 -4 -12 19 -46 16 -59 -15 -79 -17 -11 -35 -19 -41
-18 -5 2 -8 -3 -6 -10 1 -7 -6 -11 -17 -9 -11 2 -15 -1 -11 -8 4 -6 -10 -26
-32 -45 -37 -33 -61 -45 -48 -25 3 6 1 10 -5 10 -6 0 -10 -6 -8 -12 4 -19 -33
-58 -55 -58 -10 0 -16 -4 -13 -9 4 -5 -11 -23 -32 -39 -36 -29 -38 -33 -37
-89 l0 -58 132 -5 c72 -3 134 -8 137 -11 4 -3 9 -98 12 -210 5 -204 5 -204 30
-217 16 -8 24 -9 24 -2 0 6 4 9 9 6 5 -3 14 1 21 9 9 11 11 50 9 133 -5 174
-1 270 11 252 7 -11 10 -6 10 20 0 24 -3 31 -9 21 -11 -18 -22 122 -19 244 l3
91 35 -2 c46 -2 46 -2 32 -16 -7 -7 -12 -21 -11 -32 1 -18 2 -18 9 4 5 14 8
-123 7 -310 -1 -210 -6 -338 -12 -342 -6 -5 -4 -8 5 -9 10 0 8 -3 -5 -9 -17
-7 -17 -9 -2 -9 11 -1 17 -9 17 -25 0 -18 7 -25 31 -30 27 -5 30 -8 19 -21
-10 -12 -10 -15 1 -15 12 0 12 -2 1 -9 -8 -5 -13 -24 -12 -47 3 -57 2 -60 -23
-71 l-23 -11 3 -206 c2 -132 -1 -206 -7 -206 -6 0 -10 -7 -10 -16 0 -9 -5 -12
-12 -8 -7 5 -8 3 -4 -5 5 -8 -7 -27 -30 -51 l-39 -39 -158 0 c-96 -1 -156 3
-152 8 3 5 1 12 -4 16 -7 3 -11 -95 -13 -271 l-3 -276 -24 -19 c-21 -17 -38
-19 -142 -17 l-119 3 0 388 0 387 103 0 102 0 0 109 c0 60 -2 108 -5 106 -4
-2 -6 7 -6 20 0 13 4 21 10 18 5 -4 7 1 3 11 -5 12 0 20 16 27 21 9 21 9 -5 6
-19 -3 -25 0 -21 10 3 8 -3 13 -17 13 -20 0 -21 4 -16 38 3 20 7 60 8 87 1 28
8 56 15 64 11 10 14 61 14 220 2 319 3 335 27 361 17 18 24 20 44 10 20 -10
21 -9 6 3 -15 12 -12 17 33 56 27 23 49 36 49 29 0 -7 6 -2 13 12 7 14 20 24
29 22 10 -1 15 4 14 14 0 9 5 19 13 22 9 3 11 0 6 -8 -5 -9 -4 -11 4 -6 6 4 9
11 6 16 -3 4 17 25 43 46 26 21 40 30 32 20 -14 -18 -14 -18 7 -6 11 8 19 20
16 27 -7 18 5 16 24 -2 16 -17 29 -14 19 4 -12 19 -15 244 -5 313 7 48 7 73
-1 90 -11 23 -11 23 6 3 15 -18 16 -18 10 -2 -3 10 -6 25 -6 33 0 9 -4 13 -9
10 -10 -7 -9 20 1 30 4 3 4 12 1 20 -3 8 0 14 6 14 7 0 6 9 -4 24 -14 21 -22
23 -81 20 -74 -3 -102 -10 -126 -31 -13 -12 -38 -14 -112 -11 -52 1 -98 7
-102 11 -5 4 -10 94 -12 199 -4 162 -7 196 -22 221 -10 16 -16 35 -14 42 3 7
0 16 -6 20 -6 3 -10 3 -9 -2 4 -24 -4 -21 -28 8 -16 18 -27 38 -25 45 4 18
-12 24 -28 12 -12 -8 -12 -9 3 -4 9 3 17 1 17 -4 0 -6 -8 -10 -18 -10 -11 0
-18 -7 -18 -19 0 -10 5 -17 11 -15 5 2 29 -20 53 -50 l42 -54 0 -274 0 -273
-35 -53 c-37 -54 -44 -58 -75 -42 -13 7 -21 7 -25 0 -4 -6 -3 -10 2 -9 27 5
30 -5 32 -83 1 -76 0 -81 -14 -64 -15 20 -15 20 -15 0 0 -11 6 -28 13 -39 19
-29 24 -415 5 -426 -7 -5 -8 -9 -2 -9 7 0 10 -70 10 -214 -1 -189 -3 -216 -18
-233 -10 -11 -18 -24 -18 -30 0 -6 -15 -18 -32 -26 -25 -12 -36 -13 -47 -4
-12 9 -13 9 -7 0 4 -7 6 -14 4 -15 -2 -1 -187 -5 -413 -8 l-410 -5 -5 -463 -5
-463 -880 0 -880 0 -3 465 -2 466 -1220 0 c-1305 0 -1247 -2 -1200 48 22 23
26 37 8 26 -8 -5 -9 -2 -5 10 4 10 7 20 7 22 0 12 19 1 24 -13 2 -10 2 0 -1
21 -3 23 -2 37 3 33 9 -5 13 9 15 56 0 9 4 17 10 17 5 0 9 12 9 26 0 14 4 23
9 20 5 -3 9 0 8 7 -1 36 4 57 13 52 6 -3 10 -1 10 6 0 8 4 8 15 -1 13 -11 14
-10 9 4 -3 9 -10 16 -15 16 -12 0 -11 28 1 32 6 2 17 26 24 53 26 95 31 102
75 110 23 4 135 6 249 5 456 -5 4283 14 4287 21 3 4 -30 15 -73 24 -42 9 -85
19 -94 21 -15 5 -18 17 -18 80 l0 74 -2156 0 c-1721 0 -2155 3 -2151 13 3 6
24 59 47 116 44 111 87 198 101 207 5 3 6 16 3 29 -5 20 -3 24 14 20 15 -2 22
3 27 22 3 14 2 30 -4 36 -11 11 -4 35 21 61 15 17 24 51 19 79 0 4 3 7 8 7 8
0 25 56 22 73 0 4 3 7 7 7 4 0 9 12 10 27 1 15 6 29 11 33 5 3 13 18 16 33 5
18 12 26 21 23 17 -6 17 -1 3 26 -9 16 -8 19 2 13 9 -6 11 -3 6 8 -3 10 -2 17
3 17 6 0 10 -5 10 -12 0 -6 3 -8 6 -5 4 4 1 13 -6 22 -8 10 -9 15 -1 15 6 0
10 3 10 8 -1 4 2 22 6 40 6 25 10 30 17 20 7 -9 8 -7 5 10 -3 12 -1 22 3 22 4
0 6 10 2 22 -3 14 -2 19 6 14 8 -5 12 0 12 13 0 11 8 25 18 30 9 6 11 11 5 11
-14 0 -18 30 -4 30 5 0 12 16 15 35 5 23 11 33 18 29 7 -5 9 -2 5 9 -3 9 -2
19 3 22 4 3 10 -1 13 -7 2 -7 4 -1 3 14 0 14 -4 24 -9 21 -4 -2 1 13 10 34 10
21 21 40 26 41 4 2 7 10 7 18 0 13 35 15 243 13 199 -1 2597 7 3477 12 129 1
243 5 254 9 12 4 -10 12 -65 24 -132 27 -121 17 -117 102 l3 74 -1857 0
c-1552 0 -1858 2 -1858 13 0 29 77 197 99 216 13 11 18 22 12 25 -15 10 8 56
28 56 12 0 12 3 3 12 -14 14 -16 32 -3 24 10 -7 24 22 16 34 -3 5 -1 11 5 15
5 3 10 18 10 33 0 22 2 24 11 12 8 -12 9 -10 5 10 -3 14 -6 37 -6 52 0 15 -7
33 -15 42 -8 8 -15 17 -15 20 0 3 83 6 185 6 158 0 185 2 185 15 0 8 7 15 15
15 8 0 27 14 42 30 28 32 56 38 83 18 9 -7 6 -3 -6 8 -24 23 -74 22 -74 -1 0
-28 -37 -45 -91 -44 -54 2 -89 19 -89 46 0 7 -9 13 -19 13 -11 0 -22 6 -24 13
-4 10 -6 10 -6 0 -1 -7 -8 -13 -16 -13 -9 0 -12 6 -9 15 4 8 4 15 1 15 -3 0
-12 -7 -21 -15z m79 -51 c46 -49 37 -54 -95 -54 -111 0 -120 1 -120 19 0 14
10 20 41 25 23 4 48 13 56 21 8 8 32 15 54 15 30 0 46 -6 64 -26z m6629 -722
c26 -14 63 -44 81 -65 18 -21 88 -147 156 -280 67 -133 139 -273 159 -312 20
-38 101 -197 179 -352 l142 -282 -3 -181 c-2 -147 -6 -183 -18 -190 -8 -6
-127 -10 -270 -10 -226 0 -258 2 -281 18 -26 17 -147 126 -319 287 -46 44
-119 111 -160 150 -41 38 -97 90 -123 115 l-48 45 -484 5 c-266 3 -487 9 -492
13 -11 12 -13 1006 -2 1035 5 12 17 26 28 30 11 4 332 6 713 4 l693 -4 49 -26z
m-7430 -1042 c-6 -6 -10 -2 -11 12 -2 16 1 18 10 9 7 -7 8 -14 1 -21z m6316
-759 c0 -27 -18 -31 -144 -31 -111 0 -136 7 -136 37 0 10 32 13 140 13 131 0
140 -1 140 -19z m-2260 -1271 l0 -390 -125 0 c-120 0 -127 1 -150 25 l-25 24
0 344 c0 420 -16 385 183 386 l117 1 0 -390z m500 0 l0 -390 -185 0 -185 0 -1
370 c-1 204 -2 376 -3 383 -1 6 -1 15 1 20 2 4 87 7 189 7 l184 0 0 -390z
m3550 295 l23 -25 -204 0 c-179 0 -208 2 -229 18 -24 17 -22 17 100 22 281 13
284 13 310 -15z m40 -63 c0 -35 -16 -40 -175 -51 -235 -16 -254 -16 -264 12
-26 68 -47 62 209 59 210 -2 230 -4 230 -20z"/>
<path d="M6555 6250 c-4 -6 -12 -9 -18 -7 -10 3 -47 -27 -47 -38 0 -13 29 -3
34 11 4 9 9 14 12 11 4 -3 13 1 21 9 9 8 13 17 10 20 -3 3 -8 0 -12 -6z"/>
<path d="M8064 6221 l-31 -28 28 1 c15 1 25 4 22 9 -2 4 0 7 6 7 6 0 8 7 5 15
-5 12 10 15 83 18 l88 3 -85 2 c-80 1 -87 0 -116 -27z"/>
<path d="M3876 6223 c-6 -14 -5 -15 5 -6 7 7 10 15 7 18 -3 3 -9 -2 -12 -12z"/>
<path d="M8285 6230 c3 -5 8 -10 11 -10 2 0 4 5 4 10 0 6 -5 10 -11 10 -5 0
-7 -4 -4 -10z"/>
<path d="M5645 6210 c-401 -3 -665 -6 -585 -8 285 -6 1305 -9 1333 -4 32 5 37
23 5 20 -13 -2 -351 -5 -753 -8z"/>
<path d="M4567 6187 c-6 -15 31 -63 41 -53 4 4 -3 15 -16 24 -18 14 -20 20
-10 30 8 8 8 12 1 12 -6 0 -13 -6 -16 -13z"/>
<path d="M8295 6191 c-3 -5 -1 -12 5 -16 5 -3 10 1 10 9 0 18 -6 21 -15 7z"/>
<path d="M7708 6143 c7 -3 16 -2 19 1 4 3 -2 6 -13 5 -11 0 -14 -3 -6 -6z"/>
<path d="M8360 6051 c0 -6 4 -13 10 -16 6 -3 7 1 4 9 -7 18 -14 21 -14 7z"/>
<path d="M8407 6044 c-4 -4 3 -15 15 -25 28 -25 32 -24 12 6 -18 28 -18 28
-27 19z"/>
<path d="M3486 5932 c-2 -4 25 -6 62 -4 99 5 107 10 20 11 -42 0 -79 -3 -82
-7z"/>
<path d="M3418 5923 c6 -2 18 -2 25 0 6 3 1 5 -13 5 -14 0 -19 -2 -12 -5z"/>
<path d="M3690 5926 c0 -2 9 -6 20 -9 11 -3 18 -1 14 4 -5 9 -34 13 -34 5z"/>
<path d="M3343 5913 c9 -2 23 -2 30 0 6 3 -1 5 -18 5 -16 0 -22 -2 -12 -5z"/>
<path d="M3702 5865 c-17 -37 -14 -45 4 -12 9 16 14 31 11 33 -2 2 -9 -7 -15
-21z"/>
<path d="M3598 5873 c7 -3 16 -2 19 1 4 3 -2 6 -13 5 -11 0 -14 -3 -6 -6z"/>
<path d="M3073 5817 c-18 -12 -33 -26 -33 -30 0 -4 17 4 38 20 20 15 39 28 41
30 2 2 0 3 -5 2 -5 0 -24 -10 -41 -22z"/>
<path d="M3438 5833 c7 -3 16 -2 19 1 4 3 -2 6 -13 5 -11 0 -14 -3 -6 -6z"/>
<path d="M3997 5809 c4 -13 8 -18 11 -10 2 7 -1 18 -6 23 -8 8 -9 4 -5 -13z"/>
<path d="M3630 5796 c0 -2 8 -10 18 -17 15 -13 16 -12 3 4 -13 16 -21 21 -21
13z"/>
<path d="M4078 5783 c7 -3 16 -2 19 1 4 3 -2 6 -13 5 -11 0 -14 -3 -6 -6z"/>
<path d="M2972 5735 c-12 -14 -18 -25 -13 -25 5 0 16 11 25 25 9 14 15 25 13
25 -2 0 -13 -11 -25 -25z"/>
<path d="M5813 5743 c9 -2 25 -2 35 0 9 3 1 5 -18 5 -19 0 -27 -2 -17 -5z"/>
<path d="M8590 5731 c0 -6 4 -13 10 -16 6 -3 7 1 4 9 -7 18 -14 21 -14 7z"/>
<path d="M3140 5720 c0 -5 5 -10 11 -10 5 0 7 5 4 10 -3 6 -8 10 -11 10 -2 0
-4 -4 -4 -10z"/>
<path d="M3630 5720 c0 -5 5 -10 11 -10 5 0 7 5 4 10 -3 6 -8 10 -11 10 -2 0
-4 -4 -4 -10z"/>
<path d="M7735 5690 c-13 -6 -15 -9 -5 -9 8 0 22 4 30 9 18 12 2 12 -25 0z"/>
<path d="M2841 5600 c-13 -11 -19 -20 -14 -20 6 0 18 9 28 20 23 25 17 25 -14
0z"/>
<path d="M2736 5481 c-14 -15 -15 -21 -4 -27 7 -4 10 -3 5 1 -4 5 0 17 10 27
9 10 14 18 11 18 -3 0 -13 -9 -22 -19z"/>
<path d="M2955 5470 c-3 -5 1 -10 10 -10 9 0 13 5 10 10 -3 6 -8 10 -10 10 -2
0 -7 -4 -10 -10z"/>
<path d="M2684 5415 c-15 -20 -24 -38 -22 -41 3 -3 15 11 27 31 13 22 26 33
33 29 7 -4 8 -3 4 4 -10 17 -12 16 -42 -23z"/>
<path d="M3466 5403 c-6 -14 -5 -15 5 -6 7 7 10 15 7 18 -3 3 -9 -2 -12 -12z"/>
<path d="M3496 5365 c-9 -26 -7 -32 5 -12 6 10 9 21 6 23 -2 3 -7 -2 -11 -11z"/>
<path d="M2630 5339 c0 -5 5 -7 10 -4 6 3 10 8 10 11 0 2 -4 4 -10 4 -5 0 -10
-5 -10 -11z"/>
<path d="M5493 5289 c-25 -12 -47 -34 -63 -63 -13 -25 -28 -43 -32 -40 -4 3
-8 -2 -8 -10 0 -23 -32 -86 -41 -80 -4 2 -7 -4 -7 -13 0 -10 -7 -34 -15 -55
-14 -31 -15 -38 -2 -48 8 -7 13 -16 10 -20 -3 -5 0 -12 6 -16 8 -4 9 -3 5 4
-10 17 10 15 27 -3 8 -8 17 -11 21 -8 3 4 6 1 6 -5 0 -6 7 -9 17 -5 10 4 14 2
10 -4 -5 -7 8 -16 30 -23 21 -7 52 -21 69 -31 44 -26 68 -24 85 9 8 15 22 33
32 40 9 7 17 20 17 27 0 17 39 84 41 70 1 -5 4 4 8 20 4 17 12 29 18 28 7 -1
9 7 6 20 -6 22 -6 22 14 2 10 -11 31 -38 45 -59 l27 -39 -25 -19 c-13 -11 -24
-28 -24 -39 0 -17 8 -19 91 -19 50 0 99 -5 110 -10 10 -6 19 -7 19 -2 0 12 69
12 76 0 4 -6 -2 -8 -15 -3 -14 4 -21 2 -19 -5 2 -7 -18 -23 -44 -37 -43 -24
-46 -29 -43 -60 2 -19 14 -51 28 -71 13 -21 27 -47 31 -60 4 -12 11 -22 16
-22 7 0 26 -40 21 -47 0 -2 8 -12 19 -23 26 -26 25 -40 -2 -41 -13 0 -32 -2
-43 -4 -32 -7 -53 4 -59 31 -8 31 -31 41 -51 21 -8 -9 -15 -18 -15 -22 0 -18
-77 -135 -89 -135 -7 0 -11 -6 -8 -14 3 -8 -1 -17 -10 -20 -18 -7 -10 -51 14
-78 8 -9 12 -22 7 -29 -4 -7 -3 -10 4 -5 15 9 33 -28 26 -51 -4 -12 -3 -14 3
-5 7 9 20 -1 49 -38 41 -52 67 -60 72 -23 4 25 25 31 120 35 34 2 62 6 62 10
0 5 10 8 23 8 18 0 19 2 7 10 -10 6 -11 10 -2 10 6 0 12 6 12 14 0 14 61 126
86 156 6 8 15 26 19 40 4 14 14 33 23 43 8 9 12 20 9 23 -3 4 4 15 16 26 12
11 16 17 10 13 -19 -9 -16 3 7 32 40 52 36 117 -14 185 -16 23 -17 30 -6 43 7
8 10 18 6 22 -3 3 -6 1 -6 -5 0 -25 -26 -10 -49 27 -13 22 -24 43 -25 47 -1 5
-15 23 -32 42 -29 31 -32 33 -60 20 -16 -7 -38 -21 -48 -30 -23 -21 -32 -22
-42 -6 -4 7 -3 8 4 4 8 -4 12 0 12 11 0 21 34 76 42 67 3 -3 5 3 5 13 -2 13 4
17 21 15 12 -2 22 2 22 8 0 6 -4 8 -10 5 -5 -3 -10 1 -10 9 0 8 5 18 11 21 6
4 8 13 5 20 -3 8 -1 15 4 17 9 3 13 22 11 51 -1 20 -26 22 -61 4 -30 -16 -38
-10 -70 50 -47 88 -36 84 -227 87 -95 2 -177 -1 -184 -5 -7 -4 -17 -5 -22 -2
-23 14 -99 10 -134 -8z m145 -56 c13 -10 34 -35 46 -56 l21 -37 -40 -77 c-22
-42 -52 -96 -68 -120 l-27 -44 -100 52 c-55 29 -100 57 -100 63 1 26 120 222
141 234 31 16 95 9 127 -15z m392 -53 c35 -57 51 -75 68 -74 12 0 22 -3 22 -7
0 -4 -17 -38 -39 -76 l-39 -68 -92 -3 c-83 -2 -92 -1 -86 14 5 14 -60 132
-152 272 l-15 23 143 -3 143 -3 47 -75z m226 -377 c57 -90 69 -115 69 -150 0
-35 -6 -49 -32 -75 -28 -28 -40 -32 -95 -36 l-63 -4 -70 119 c-38 65 -70 124
-70 131 0 10 168 121 186 122 3 0 37 -48 75 -107z m-163 -323 l159 0 -57 -107
c-31 -60 -62 -113 -68 -119 -7 -7 -52 -14 -101 -18 -54 -4 -93 -11 -97 -18 -9
-15 -5 -19 -57 59 -23 34 -42 67 -42 74 0 11 53 111 73 137 7 9 13 10 21 2 6
-6 72 -10 169 -10z"/>
<path d="M2567 5255 c-15 -19 -25 -35 -21 -35 7 0 28 25 45 53 15 27 7 20 -24
-18z"/>
<path d="M2785 5260 c3 -5 8 -10 11 -10 2 0 4 5 4 10 0 6 -5 10 -11 10 -5 0
-7 -4 -4 -10z"/>
<path d="M3435 5219 c-4 -6 -5 -12 -2 -15 2 -3 7 2 10 11 7 17 1 20 -8 4z"/>
<path d="M6145 5220 c-3 -5 -1 -10 4 -10 6 0 11 5 11 10 0 6 -2 10 -4 10 -3 0
-8 -4 -11 -10z"/>
<path d="M8207 5185 c-4 -8 -2 -17 3 -20 6 -4 10 3 10 14 0 25 -6 27 -13 6z"/>
<path d="M2491 5156 c-9 -11 -9 -16 1 -22 7 -4 10 -4 6 1 -4 4 -3 14 3 22 6 7
9 13 6 13 -2 0 -10 -6 -16 -14z"/>
<path d="M2725 5159 c-9 -14 -2 -20 14 -10 8 6 9 11 3 15 -6 3 -14 1 -17 -5z"/>
<path d="M2805 5160 c-3 -5 -1 -10 4 -10 6 0 11 5 11 10 0 6 -2 10 -4 10 -3 0
-8 -4 -11 -10z"/>
<path d="M8103 5124 c-3 -8 -1 -29 4 -47 8 -30 10 -30 15 -9 4 14 2 20 -4 16
-7 -5 -9 4 -6 25 5 33 1 41 -9 15z"/>
<path d="M8140 5100 c-1 -8 -3 -25 -6 -37 -2 -12 1 -25 6 -28 6 -4 7 1 3 12
-4 11 -2 15 3 10 13 -12 15 -38 20 -230 4 -145 3 -168 -11 -173 -12 -5 -15
-23 -15 -86 0 -65 -4 -85 -20 -105 -11 -15 -18 -28 -15 -31 10 -10 50 19 73
53 21 34 22 42 22 297 l-1 263 -29 35 c-19 22 -30 29 -30 20z m-8 -652 c-7 -7
-12 -8 -12 -2 0 14 12 26 19 19 2 -3 -1 -11 -7 -17z"/>
<path d="M3355 5059 c-4 -6 -5 -12 -2 -15 2 -3 7 2 10 11 7 17 1 20 -8 4z"/>
<path d="M2418 5028 c5 -5 16 -8 23 -6 8 3 3 7 -10 11 -17 4 -21 3 -13 -5z"/>
<path d="M2493 5016 c0 -6 9 -13 19 -13 10 -1 18 0 18 2 0 2 -8 9 -18 14 -14
7 -19 6 -19 -3z"/>
<path d="M8100 5013 c0 -19 21 -27 33 -13 9 10 9 11 -2 5 -8 -4 -17 -2 -22 6
-6 9 -9 10 -9 2z"/>
<path d="M5753 4985 c-9 -24 1 -27 15 -5 8 13 8 20 2 20 -6 0 -13 -7 -17 -15z"/>
<path d="M1012 4964 c-18 -14 -39 -39 -48 -55 -22 -43 -27 -162 -10 -258 16
-88 32 -121 71 -147 23 -15 34 -14 154 5 298 50 412 108 447 227 13 47 13 56
-2 94 -19 47 -101 110 -115 89 -8 -13 -105 -8 -224 11 -79 12 -130 7 -143 -16
-5 -9 -3 -43 6 -82 17 -84 11 -215 -13 -261 -23 -46 -34 -28 -25 44 3 33 6
107 5 165 -1 86 -5 115 -24 158 -13 28 -29 52 -35 52 -6 0 -26 -12 -44 -26z"/>
<path d="M6125 4980 c3 -5 8 -10 11 -10 2 0 4 5 4 10 0 6 -5 10 -11 10 -5 0
-7 -4 -4 -10z"/>
<path d="M8323 4950 c0 -25 2 -35 4 -22 2 12 2 32 0 45 -2 12 -4 2 -4 -23z"/>
<path d="M1288 4973 c6 -2 18 -2 25 0 6 3 1 5 -13 5 -14 0 -19 -2 -12 -5z"/>
<path d="M5682 4968 c-16 -16 -15 -25 3 -25 8 0 15 9 15 19 0 21 -2 22 -18 6z"/>
<path d="M2344 4938 l-29 -33 33 29 c30 28 37 36 29 36 -2 0 -16 -15 -33 -32z"/>
<path d="M2420 4956 c0 -2 7 -7 16 -10 8 -3 12 -2 9 4 -6 10 -25 14 -25 6z"/>
<path d="M2738 4943 c7 -3 16 -2 19 1 4 3 -2 6 -13 5 -11 0 -14 -3 -6 -6z"/>
<path d="M2506 4929 c3 -5 14 -9 25 -9 11 0 29 -5 40 -10 13 -7 19 -7 19 0 0
5 -3 10 -7 10 -5 0 -25 4 -45 9 -22 5 -36 5 -32 0z"/>
<path d="M2840 4920 c0 -5 5 -10 11 -10 5 0 7 5 4 10 -3 6 -8 10 -11 10 -2 0
-4 -4 -4 -10z"/>
<path d="M2898 4903 c7 -3 16 -2 19 1 4 3 -2 6 -13 5 -11 0 -14 -3 -6 -6z"/>
<path d="M3130 4901 c0 -6 4 -13 10 -16 6 -3 7 1 4 9 -7 18 -14 21 -14 7z"/>
<path d="M3307 4903 c-4 -3 -7 -11 -7 -17 0 -6 5 -5 12 2 6 6 9 14 7 17 -3 3
-9 2 -12 -2z"/>
<path d="M5200 4903 c-57 -8 -70 -14 -70 -33 0 -11 8 -24 18 -29 52 -31 55
-37 37 -75 -10 -20 -22 -36 -27 -36 -5 0 -6 -5 -2 -11 3 -6 2 -14 -4 -18 -8
-5 -8 -26 -2 -68 6 -47 15 -67 39 -92 17 -17 31 -40 31 -50 0 -10 6 -24 14
-30 23 -19 57 -91 50 -104 -4 -7 -4 -9 1 -5 11 11 38 -29 29 -44 -4 -6 -3 -8
4 -4 6 4 22 -12 37 -38 14 -24 32 -49 39 -56 9 -6 77 -12 177 -14 134 -3 167
-1 186 11 17 11 21 19 13 28 -6 7 -10 66 -9 140 0 69 -1 128 -3 130 -2 2 -76
7 -166 11 -89 4 -162 10 -162 14 0 4 7 13 15 20 8 7 15 19 15 26 0 8 4 14 10
14 6 0 9 3 8 8 -1 4 2 17 6 30 6 17 13 21 24 17 10 -4 29 -11 45 -15 23 -7 27
-6 27 11 0 11 -5 29 -10 40 -7 13 -7 19 0 19 18 0 11 15 -12 25 -16 7 -22 18
-20 34 1 16 -2 22 -11 18 -17 -6 -40 29 -31 46 4 7 4 9 -1 5 -8 -8 -45 33 -45
50 0 14 -35 20 -128 21 -45 0 -86 2 -90 4 -4 1 -18 2 -32 0z m171 -49 c42 -6
46 -10 87 -76 42 -69 42 -69 22 -86 -12 -9 -38 -48 -59 -87 -37 -69 -38 -70
-81 -73 -53 -4 -93 12 -125 50 -34 40 -32 83 7 163 28 55 31 68 20 85 -6 11
-12 22 -12 25 0 7 88 6 141 -1z m339 -393 c3 -5 4 -57 2 -115 l-3 -106 -138 0
c-119 0 -140 2 -153 18 -21 24 -128 198 -128 209 0 11 413 5 420 -6z"/>
<path d="M6308 4903 c7 -3 16 -2 19 1 4 3 -2 6 -13 5 -11 0 -14 -3 -6 -6z"/>
<path d="M2984 4886 c24 -19 42 -20 52 -4 5 8 2 9 -10 5 -10 -4 -27 -2 -39 4
-21 10 -21 10 -3 -5z"/>
<path d="M3285 4860 c3 -5 8 -10 11 -10 2 0 4 5 4 10 0 6 -5 10 -11 10 -5 0
-7 -4 -4 -10z"/>
<path d="M2818 4848 c5 -5 16 -8 23 -6 8 3 3 7 -10 11 -17 4 -21 3 -13 -5z"/>
<path d="M3200 4841 c0 -6 5 -13 10 -16 6 -3 10 1 10 9 0 9 -4 16 -10 16 -5 0
-10 -4 -10 -9z"/>
<path d="M3267 4819 c4 -15 8 -17 14 -8 8 14 3 29 -11 29 -4 0 -6 -9 -3 -21z"/>
<path d="M2230 4802 c0 -5 -9 -18 -20 -30 -12 -12 -17 -22 -13 -22 8 0 32 25
47 48 4 7 2 12 -3 12 -6 0 -11 -4 -11 -8z"/>
<path d="M3600 4765 c0 -8 4 -15 10 -15 5 0 7 7 4 15 -4 8 -8 15 -10 15 -2 0
-4 -7 -4 -15z"/>
<path d="M8322 4730 c0 -14 2 -19 5 -12 2 6 2 18 0 25 -3 6 -5 1 -5 -13z"/>
<path d="M3243 4725 c-7 -8 -9 -16 -4 -19 5 -3 12 1 15 10 8 22 4 25 -11 9z"/>
<path d="M2152 4700 c-13 -17 -17 -27 -8 -24 11 4 41 54 33 54 -2 0 -13 -13
-25 -30z"/>
<path d="M6401 4684 c0 -11 3 -14 6 -6 3 7 2 16 -1 19 -3 4 -6 -2 -5 -13z"/>
<path d="M5591 4664 c0 -11 3 -14 6 -6 3 7 2 16 -1 19 -3 4 -6 -2 -5 -13z"/>
<path d="M2099 4633 c-13 -16 -12 -17 4 -4 9 7 17 15 17 17 0 8 -8 3 -21 -13z"/>
<path d="M8115 4609 c-4 -6 -5 -12 -2 -15 2 -3 7 2 10 11 7 17 1 20 -8 4z"/>
<path d="M2075 4599 c-4 -6 -5 -12 -2 -15 2 -3 7 2 10 11 7 17 1 20 -8 4z"/>
<path d="M5956 4598 c3 -4 12 -8 20 -8 8 0 14 4 14 8 0 4 -9 8 -19 8 -11 0
-17 -4 -15 -8z"/>
<path d="M3170 4586 c0 -8 4 -17 9 -20 5 -4 7 3 4 14 -6 23 -13 26 -13 6z"/>
<path d="M3150 4531 c0 -6 4 -13 10 -16 6 -3 7 1 4 9 -7 18 -14 21 -14 7z"/>
<path d="M583 4440 c-24 -10 -35 -27 -57 -91 -20 -57 -21 -229 -2 -272 7 -18
19 -46 25 -63 18 -46 61 -67 124 -59 155 19 332 62 396 95 91 46 141 115 141
194 0 37 -6 52 -32 81 -17 20 -48 45 -69 56 -46 23 -50 23 -43 4 8 -20 -59
-20 -181 0 -117 19 -148 19 -173 -2 -20 -17 -20 -20 -6 -93 19 -91 13 -213
-11 -260 -29 -55 -38 -23 -21 70 27 140 17 283 -23 329 -20 23 -34 25 -68 11z"/>
<path d="M723 4443 c9 -2 23 -2 30 0 6 3 -1 5 -18 5 -16 0 -22 -2 -12 -5z"/>
<path d="M1908 4393 c-18 -21 -31 -43 -25 -43 2 0 13 14 25 30 25 33 24 41 0
13z"/>
<path d="M3090 4400 c-9 -6 -10 -10 -3 -10 6 0 15 5 18 10 8 12 4 12 -15 0z"/>
<path d="M5220 4399 c0 -5 5 -7 10 -4 6 3 10 8 10 11 0 2 -4 4 -10 4 -5 0 -10
-5 -10 -11z"/>
<path d="M8105 4381 c-3 -5 -2 -12 3 -15 5 -3 9 1 9 9 0 17 -3 19 -12 6z"/>
<path d="M8718 4367 c-3 -19 -2 -25 4 -19 6 6 8 18 6 28 -3 14 -5 12 -10 -9z"/>
<path d="M8122 4330 c0 -14 2 -19 5 -12 2 6 2 18 0 25 -3 6 -5 1 -5 -13z"/>
<path d="M3400 4330 c0 -5 5 -10 10 -10 6 0 10 5 10 10 0 6 -4 10 -10 10 -5 0
-10 -4 -10 -10z"/>
<path d="M1985 4290 c3 -5 8 -10 11 -10 2 0 4 5 4 10 0 6 -5 10 -11 10 -5 0
-7 -4 -4 -10z"/>
<path d="M3868 4263 c7 -3 16 -2 19 1 4 3 -2 6 -13 5 -11 0 -14 -3 -6 -6z"/>
<path d="M1795 4249 c-4 -6 -5 -12 -2 -15 2 -3 7 2 10 11 7 17 1 20 -8 4z"/>
<path d="M1761 4208 c-13 -20 -12 -22 1 -11 8 7 18 10 22 6 4 -4 4 0 0 10 -8
21 -6 21 -23 -5z"/>
<path d="M5078 4223 c12 -2 32 -2 45 0 12 2 2 4 -23 4 -25 0 -35 -2 -22 -4z"/>
<path d="M7755 4180 c-3 -5 -1 -10 4 -10 6 0 11 5 11 10 0 6 -2 10 -4 10 -3 0
-8 -4 -11 -10z"/>
<path d="M1768 4163 c6 -2 18 -2 25 0 6 3 1 5 -13 5 -14 0 -19 -2 -12 -5z"/>
<path d="M1873 4140 c-13 -5 -23 -12 -23 -15 0 -4 5 -3 10 0 6 3 17 -1 26 -9
8 -9 21 -16 27 -16 7 0 3 7 -8 16 -17 13 -18 16 -5 24 19 12 2 12 -27 0z"/>
<path d="M2013 4095 c0 -8 4 -12 9 -9 5 3 6 10 3 15 -9 13 -12 11 -12 -6z"/>
<path d="M1750 4066 c14 -8 41 -17 60 -20 29 -5 27 -3 -15 14 -56 23 -83 26
-45 6z"/>
<path d="M2966 4055 c-9 -26 -7 -32 5 -12 6 10 9 21 6 23 -2 3 -7 -2 -11 -11z"/>
<path d="M2205 4010 c4 -6 11 -8 16 -5 14 9 11 15 -7 15 -8 0 -12 -5 -9 -10z"/>
<path d="M2336 3993 c-6 -14 -5 -15 5 -6 7 7 10 15 7 18 -3 3 -9 -2 -12 -12z"/>
<path d="M2297 3979 c7 -7 15 -10 18 -7 3 3 -2 9 -12 12 -14 6 -15 5 -6 -5z"/>
<path d="M1615 3969 c-4 -6 -5 -12 -2 -15 2 -3 7 2 10 11 7 17 1 20 -8 4z"/>
<path d="M2425 3940 c-3 -5 -1 -10 4 -10 6 0 11 5 11 10 0 6 -2 10 -4 10 -3 0
-8 -4 -11 -10z"/>
<path d="M1586 3923 c-6 -14 -5 -15 5 -6 7 7 10 15 7 18 -3 3 -9 -2 -12 -12z"/>
<path d="M2150 3936 c0 -2 7 -7 16 -10 8 -3 12 -2 9 4 -6 10 -25 14 -25 6z"/>
<path d="M2490 3920 c0 -5 7 -7 15 -4 8 4 15 8 15 10 0 2 -7 4 -15 4 -8 0 -15
-4 -15 -10z"/>
<path d="M2230 3910 c0 -5 5 -10 11 -10 5 0 7 5 4 10 -3 6 -8 10 -11 10 -2 0
-4 -4 -4 -10z"/>
<path d="M2530 3900 c8 -5 20 -10 25 -10 6 0 3 5 -5 10 -8 5 -19 10 -25 10 -5
0 -3 -5 5 -10z"/>
<path d="M2285 3890 c-3 -5 -1 -10 4 -10 6 0 11 5 11 10 0 6 -2 10 -4 10 -3 0
-8 -4 -11 -10z"/>
<path d="M2330 3880 c8 -5 20 -10 25 -10 6 0 3 5 -5 10 -8 5 -19 10 -25 10 -5
0 -3 -5 5 -10z"/>
<path d="M2388 3858 c5 -5 16 -8 23 -6 8 3 3 7 -10 11 -17 4 -21 3 -13 -5z"/>
<path d="M2638 3863 c7 -3 16 -2 19 1 4 3 -2 6 -13 5 -11 0 -14 -3 -6 -6z"/>
<path d="M2681 3861 c-10 -6 -9 -10 5 -15 20 -8 25 -4 16 11 -4 7 -13 9 -21 4z"/>
<path d="M2730 3839 c0 -5 5 -7 10 -4 6 3 10 8 10 11 0 2 -4 4 -10 4 -5 0 -10
-5 -10 -11z"/>
<path d="M2467 3829 c7 -7 15 -10 18 -7 3 3 -2 9 -12 12 -14 6 -15 5 -6 -5z"/>
<path d="M1513 3803 c-3 -10 -12 -25 -20 -35 -12 -13 -12 -17 -1 -24 7 -4 10
-3 5 1 -4 5 -1 15 6 24 15 18 29 51 21 51 -2 0 -7 -8 -11 -17z"/>
<path d="M2855 3800 c-3 -5 -1 -10 4 -10 6 0 11 5 11 10 0 6 -2 10 -4 10 -3 0
-8 -4 -11 -10z"/>
<path d="M2630 3780 c0 -5 5 -10 11 -10 5 0 7 5 4 10 -3 6 -8 10 -11 10 -2 0
-4 -4 -4 -10z"/>
<path d="M8375 3780 c3 -5 8 -10 11 -10 2 0 4 5 4 10 0 6 -5 10 -11 10 -5 0
-7 -4 -4 -10z"/>
<path d="M2708 3753 c7 -3 16 -2 19 1 4 3 -2 6 -13 5 -11 0 -14 -3 -6 -6z"/>
<path d="M1450 3699 c-7 -11 -10 -23 -7 -25 2 -2 9 7 15 21 14 30 7 33 -8 4z"/>
<path d="M2780 3716 c0 -2 7 -7 16 -10 8 -3 12 -2 9 4 -6 10 -25 14 -25 6z"/>
<path d="M2776 3617 c3 -10 9 -15 12 -12 3 3 0 11 -7 18 -10 9 -11 8 -5 -6z"/>
<path d="M1361 3557 c-13 -21 -12 -21 5 -5 10 10 16 20 13 22 -3 3 -11 -5 -18
-17z"/>
<path d="M2747 3543 c-4 -3 -7 -11 -7 -17 0 -6 5 -5 12 2 6 6 9 14 7 17 -3 3
-9 2 -12 -2z"/>
<path d="M1301 3454 c0 -11 3 -14 6 -6 3 7 2 16 -1 19 -3 4 -6 -2 -5 -13z"/>
<path d="M1280 3419 c0 -5 5 -7 10 -4 6 3 10 8 10 11 0 2 -4 4 -10 4 -5 0 -10
-5 -10 -11z"/>
<path d="M1461 3414 c0 -11 3 -14 6 -6 3 7 2 16 -1 19 -3 4 -6 -2 -5 -13z"/>
<path d="M2686 3397 c3 -10 9 -15 12 -12 3 3 0 11 -7 18 -10 9 -11 8 -5 -6z"/>
<path d="M8826 3395 c-9 -26 -7 -32 5 -12 6 10 9 21 6 23 -2 3 -7 -2 -11 -11z"/>
<path d="M1241 3364 c-28 -47 -27 -59 1 -14 12 19 27 38 33 42 7 5 6 8 -2 8
-6 0 -20 -16 -32 -36z"/>
<path d="M2646 3297 c3 -10 9 -15 12 -12 3 3 0 11 -7 18 -10 9 -11 8 -5 -6z"/>
<path d="M8798 3303 c7 -3 16 -2 19 1 4 3 -2 6 -13 5 -11 0 -14 -3 -6 -6z"/>
<path d="M5453 3280 c2 -10 18 -15 48 -16 44 -1 44 -1 4 3 -22 3 -44 10 -48
16 -6 8 -7 7 -4 -3z"/>
<path d="M7090 3270 c0 -5 5 -10 11 -10 5 0 7 5 4 10 -3 6 -8 10 -11 10 -2 0
-4 -4 -4 -10z"/>
<path d="M7165 3269 c-16 -6 -14 -8 13 -8 33 -1 41 4 20 12 -7 2 -22 1 -33 -4z"/>
<path d="M5544 3235 c-2 -11 -3 -103 -2 -205 l3 -185 763 -3 762 -2 0 192 c0
106 -4 199 -8 205 -6 10 -178 13 -760 15 -746 3 -753 3 -758 -17z"/>
<path d="M8770 3240 c0 -5 5 -10 11 -10 5 0 7 5 4 10 -3 6 -8 10 -11 10 -2 0
-4 -4 -4 -10z"/>
<path d="M1105 3150 c-3 -6 1 -7 9 -4 18 7 21 14 7 14 -6 0 -13 -4 -16 -10z"/>
<path d="M2585 3139 c-4 -6 -5 -12 -2 -15 2 -3 7 2 10 11 7 17 1 20 -8 4z"/>
<path d="M8743 3128 c5 -14 1 -18 -17 -18 -14 0 -27 6 -29 13 -4 10 -6 10 -6
0 -1 -10 -37 -13 -146 -13 -109 0 -145 3 -145 13 0 6 -6 3 -12 -8 -8 -13 -11
-72 -10 -174 2 -136 5 -156 22 -179 15 -18 20 -40 20 -81 l0 -56 170 0 c130 0
169 3 166 12 -3 7 3 18 13 25 17 12 18 28 15 191 -1 99 1 190 6 203 6 15 6 24
0 24 -6 0 -10 5 -10 10 0 6 -10 21 -21 33 -17 17 -21 18 -16 5z"/>
<path d="M1072 3090 c-18 -29 -15 -38 4 -12 9 13 14 25 12 27 -2 2 -9 -5 -16
-15z"/>
<path d="M2527 3083 c-4 -3 -7 -16 -6 -27 0 -19 1 -19 10 3 10 24 8 36 -4 24z"/>
<path d="M1036 3033 c-6 -14 -5 -15 5 -6 7 7 10 15 7 18 -3 3 -9 -2 -12 -12z"/>
<path d="M8811 3004 c0 -11 3 -14 6 -6 3 7 2 16 -1 19 -3 4 -6 -2 -5 -13z"/>
<path d="M981 2945 c-12 -20 -16 -37 -10 -40 5 -4 8 -3 7 2 -1 4 6 23 15 41
23 43 14 41 -12 -3z"/>
<path d="M2480 2889 c-7 -11 -10 -23 -7 -25 2 -2 9 7 15 21 14 30 7 33 -8 4z"/>
<path d="M925 2850 c-3 -5 -2 -10 4 -10 5 0 13 5 16 10 3 6 2 10 -4 10 -5 0
-13 -4 -16 -10z"/>
<path d="M889 2798 c-1 -7 -1 -19 0 -27 2 -7 -2 -10 -9 -6 -9 5 -9 1 0 -16 7
-13 14 -25 15 -27 2 -2 3 17 2 42 0 43 -5 62 -8 34z"/>
<path d="M2432 2765 c-7 -14 -12 -31 -12 -38 1 -7 7 3 16 22 17 39 13 54 -4
16z"/>
<path d="M2385 2740 c3 -5 11 -10 16 -10 6 0 7 5 4 10 -3 6 -11 10 -16 10 -6
0 -7 -4 -4 -10z"/>
<path d="M8820 2739 c0 -5 5 -7 10 -4 6 3 10 8 10 11 0 2 -4 4 -10 4 -5 0 -10
-5 -10 -11z"/>
<path d="M5612 2722 l-73 -3 3 -137 3 -137 763 -5 762 -5 0 143 c0 107 -3 142
-12 142 -90 3 -1392 4 -1446 2z"/>
<path d="M830 2698 c0 -5 14 -8 30 -8 17 0 30 4 30 8 0 4 -13 8 -30 7 -16 0
-30 -3 -30 -7z"/>
<path d="M975 2700 l-50 -7 45 0 c25 -1 56 3 70 7 31 10 8 10 -65 0z"/>
<path d="M1208 2683 c17 -2 47 -2 65 0 17 2 3 4 -33 4 -36 0 -50 -2 -32 -4z"/>
<path d="M1518 2673 c34 -2 90 -2 125 0 34 2 6 3 -63 3 -69 0 -97 -1 -62 -3z"/>
<path d="M2350 2670 c-8 -5 -12 -12 -9 -15 4 -3 12 1 19 10 14 17 11 19 -10 5z"/>
<path d="M1812 2663 c37 -2 100 -2 140 0 40 1 10 3 -67 3 -77 0 -110 -1 -73
-3z"/>
<path d="M2185 2660 l-50 -7 45 -1 c25 0 54 3 65 8 23 10 12 10 -60 0z"/>
<path d="M8700 2610 c0 -5 4 -10 9 -10 6 0 13 5 16 10 3 6 -1 10 -9 10 -9 0
-16 -4 -16 -10z"/>
</g>
</svg>
